<svg width="137" height="138" viewBox="0 0 137 138" fill="none" xmlns="http://www.w3.org/2000/svg">
<circle cx="68.509" cy="68.9402" r="68.4485" fill="#B7FDD3"/>
<circle cx="68.0014" cy="66.4047" r="47.6604" fill="#E0FFEC" stroke="#037230" stroke-width="6.08431"/>
<ellipse cx="65.5847" cy="63.6447" rx="4.77803" ry="4.84517" stroke="#037230" stroke-width="1.52108" stroke-linecap="round" stroke-linejoin="round"/>
<path fill-rule="evenodd" clip-rule="evenodd" d="M58.0059 75.2287C58.0046 74.8881 58.0797 74.5516 58.2256 74.2448C58.6832 73.3166 59.9738 72.8247 61.0448 72.6019C61.8171 72.4347 62.6002 72.3231 63.388 72.2677C64.8467 72.1378 66.3138 72.1378 67.7725 72.2677C68.5603 72.3237 69.3432 72.4354 70.1157 72.6019C71.1867 72.8247 72.4773 73.2702 72.9349 74.2448C73.2282 74.8703 73.2282 75.5964 72.9349 76.2218C72.4773 77.1964 71.1867 77.642 70.1157 77.8555C69.3443 78.0295 68.561 78.1443 67.7725 78.1989C66.5852 78.301 65.3924 78.3196 64.2027 78.2546C63.9281 78.2546 63.6626 78.2546 63.388 78.1989C62.6025 78.145 61.8222 78.0302 61.0539 77.8555C59.9738 77.642 58.6924 77.1964 58.2256 76.2218C58.0805 75.9115 58.0054 75.5722 58.0059 75.2287Z" stroke="#037230" stroke-width="1.52108" stroke-linecap="round" stroke-linejoin="round"/>
<circle cx="116.704" cy="114.065" r="12.1686" fill="#037230"/>
<path fill-rule="evenodd" clip-rule="evenodd" d="M120.229 110.347V110.347C119.949 110.347 119.695 110.184 119.576 109.928C119.361 109.466 119.087 108.875 118.925 108.553C118.686 108.075 118.298 107.796 117.761 107.792C117.752 107.792 114.248 107.792 114.239 107.792C113.702 107.796 113.315 108.075 113.075 108.553C112.914 108.875 112.64 109.466 112.425 109.928C112.306 110.184 112.051 110.347 111.772 110.347V110.347C110.275 110.347 109.062 111.577 109.062 113.094V117.609C109.062 119.125 110.275 120.356 111.772 120.356H120.229C121.725 120.356 122.938 119.125 122.938 117.609V113.094C122.938 111.577 121.725 110.347 120.229 110.347Z" stroke="#F5FFF9" stroke-width="1.52108" stroke-linecap="round" stroke-linejoin="round"/>
<path fill-rule="evenodd" clip-rule="evenodd" d="M113.617 115.081C113.617 116.414 114.69 117.505 116.002 117.504C117.313 117.503 118.383 116.417 118.385 115.086C118.387 113.751 117.318 112.663 116.004 112.661C114.682 112.66 113.607 113.766 113.617 115.081Z" stroke="#F5FFF9" stroke-width="1.52108" stroke-linecap="round" stroke-linejoin="round"/>
<path d="M119.679 113.302C119.606 113.294 119.535 113.275 119.455 113.242C119.365 113.202 119.288 113.151 119.214 113.074C119.08 112.93 119.002 112.741 119.002 112.545C119.002 112.442 119.023 112.339 119.064 112.246C119.105 112.152 119.153 112.072 119.241 111.986C119.307 111.927 119.375 111.88 119.469 111.838C119.745 111.727 120.075 111.793 120.28 112.002C120.342 112.063 120.394 112.138 120.423 112.2L120.44 112.245C120.481 112.339 120.502 112.442 120.502 112.545C120.502 112.745 120.425 112.929 120.283 113.082C120.16 113.207 119.999 113.285 119.826 113.302L119.752 113.306L119.679 113.302Z" fill="#F5FFF9"/>
</svg>
