<?xml version="1.0" encoding="utf-8"?>
<!-- Generator: Adobe Illustrator 23.0.5, SVG Export Plug-In . SVG Version: 6.00 Build 0)  -->
<svg version="1.1" id="Layer_1" xmlns="http://www.w3.org/2000/svg" xmlns:xlink="http://www.w3.org/1999/xlink" x="0px" y="0px"
	 viewBox="0 0 137 138" style="enable-background:new 0 0 137 138;" xml:space="preserve">
<style type="text/css">
	.st0{fill:#B7FDD3;}
	.st1{fill:#E0FFEC;stroke:#037230;stroke-width:6.0843;}
	.st2{fill:none;stroke:#037230;stroke-width:1.5211;stroke-linecap:round;stroke-linejoin:round;}
	.st3{display:none;}
	.st4{display:inline;fill:#037230;}
	.st5{display:inline;fill:none;stroke:#F5FFF9;stroke-width:1.5211;stroke-linecap:round;stroke-linejoin:round;}
	.st6{display:inline;fill:#F5FFF9;}
</style>
<circle class="st0" cx="68.5" cy="68.9" r="68.4"/>
<circle class="st1" cx="68.5" cy="66.4" r="47.7"/>
<ellipse class="st2" cx="68.5" cy="63.6" rx="4.8" ry="4.8"/>
<path class="st2" d="M60.9,75.2c0-0.3,0.1-0.7,0.2-1c0.5-0.9,1.7-1.4,2.8-1.6c0.8-0.2,1.6-0.3,2.3-0.3c1.5-0.1,2.9-0.1,4.4,0
	c0.8,0.1,1.6,0.2,2.3,0.3c1.1,0.2,2.4,0.7,2.8,1.6c0.3,0.6,0.3,1.4,0,2c-0.5,1-1.7,1.4-2.8,1.6c-0.8,0.2-1.6,0.3-2.3,0.3
	c-1.2,0.1-2.4,0.1-3.6,0.1c-0.3,0-0.5,0-0.8-0.1c-0.8-0.1-1.6-0.2-2.3-0.3c-1.1-0.2-2.4-0.7-2.8-1.6C61,75.9,60.9,75.6,60.9,75.2z"
	/>
<g class="st3">
	<circle class="st4" cx="116.7" cy="114.1" r="12.2"/>
	<path class="st5" d="M120.2,110.3L120.2,110.3c-0.3,0-0.5-0.2-0.7-0.4c-0.2-0.5-0.5-1.1-0.7-1.4c-0.2-0.5-0.6-0.8-1.2-0.8
		c0,0-3.5,0-3.5,0c-0.5,0-0.9,0.3-1.2,0.8c-0.2,0.3-0.4,0.9-0.6,1.4c-0.1,0.3-0.4,0.4-0.7,0.4l0,0c-1.5,0-2.7,1.2-2.7,2.7v4.5
		c0,1.5,1.2,2.7,2.7,2.7h8.5c1.5,0,2.7-1.2,2.7-2.7v-4.5C122.9,111.6,121.7,110.3,120.2,110.3z"/>
	<path class="st5" d="M113.6,115.1c0,1.3,1.1,2.4,2.4,2.4c1.3,0,2.4-1.1,2.4-2.4c0-1.3-1.1-2.4-2.4-2.4
		C114.7,112.7,113.6,113.8,113.6,115.1z"/>
	<path class="st6" d="M119.7,113.3c-0.1,0-0.1,0-0.2-0.1c-0.1,0-0.2-0.1-0.2-0.2c-0.1-0.1-0.2-0.3-0.2-0.5c0-0.1,0-0.2,0.1-0.3
		c0-0.1,0.1-0.2,0.2-0.3c0.1-0.1,0.1-0.1,0.2-0.1c0.3-0.1,0.6,0,0.8,0.2c0.1,0.1,0.1,0.1,0.1,0.2l0,0c0,0.1,0.1,0.2,0.1,0.3
		c0,0.2-0.1,0.4-0.2,0.5c-0.1,0.1-0.3,0.2-0.5,0.2H119.7L119.7,113.3z"/>
</g>
</svg>
