<?xml version="1.0" encoding="utf-8"?>
<!-- Generator: Adobe Illustrator 23.0.5, SVG Export Plug-In . SVG Version: 6.00 Build 0)  -->
<svg version="1.1" id="Layer_1" xmlns="http://www.w3.org/2000/svg" xmlns:xlink="http://www.w3.org/1999/xlink" x="0px" y="0px"
	 viewBox="0 0 1080 1080" style="enable-background:new 0 0 1080 1080;" xml:space="preserve">
<style type="text/css">
	.st0{fill:url(#SVGID_1_);}
	.st1{fill:#088B45;}
	.st2{fill:#36B450;}
	.st3{font-family:'ArialMT';}
	.st4{font-size:88.6734px;}
	.st5{font-size:88.67px;}
	.st6{font-size:88.6747px;}
	.st7{font-size:89.0528px;}
	.st8{font-size:88.6744px;}
	.st9{font-size:88.4465px;}
	.st10{font-size:88.676px;}
	.st11{font-size:88.6387px;}
	.st12{font-size:88.5543px;}
	.st13{font-size:88.6717px;}
	.st14{font-size:88.5526px;}
	.st15{font-size:88.6713px;}
	.st16{font-size:88.6748px;}
	.st17{font-size:88.8938px;}
	.st18{fill:#D7CE3E;}
	.st19{fill:#098844;}
	.st20{opacity:0.63;fill:#D7CE3E;enable-background:new    ;}
	.st21{fill:#FFFFFF;}
	.st22{font-size:103.3317px;}
</style>
<title>MITAHLI COLLEGE LOGO</title>
<linearGradient id="SVGID_1_" gradientUnits="userSpaceOnUse" x1="428.1942" y1="-249.591" x2="652.0045" y2="-249.591" gradientTransform="matrix(1 0 0 1 0 780)">
	<stop  offset="0" style="stop-color:#06723B"/>
	<stop  offset="0.11" style="stop-color:#09753B"/>
	<stop  offset="0.2" style="stop-color:#147C3C"/>
	<stop  offset="0.29" style="stop-color:#268A3E"/>
	<stop  offset="0.37" style="stop-color:#3F9C41"/>
	<stop  offset="0.45" style="stop-color:#60B444"/>
	<stop  offset="0.48" style="stop-color:#6CBD45"/>
	<stop  offset="0.48" style="stop-color:#6ABC45"/>
	<stop  offset="0.54" style="stop-color:#4BA542"/>
	<stop  offset="0.6" style="stop-color:#32923F"/>
	<stop  offset="0.66" style="stop-color:#1E843D"/>
	<stop  offset="0.74" style="stop-color:#117A3C"/>
	<stop  offset="0.83" style="stop-color:#08743B"/>
	<stop  offset="1" style="stop-color:#06723B"/>
</linearGradient>
<path class="st0" d="M605.8,302.6h1.3c-55.7-21.2-132.5,0-132.5,0c-13.3,206.6-46.4,224-46.4,224c45.1,23.8,106,241.2,106,241.2
	V584.8c-9.5-3.7-14.3-14.4-10.6-23.9c3.7-9.5,14.4-14.3,23.9-10.6c9.5,3.7,14.3,14.4,10.6,23.9c-2.2,5.8-7.2,10.1-13.3,11.4v181.9
	h1.3c0,0,61-217.2,106-241.2C652,526.4,618.9,509.2,605.8,302.6z"/>
<path class="st1" d="M905.7,671.2l-16.1-9.3c35.3-61.3,53.9-131,53.9-201.8c0-222.8-181.3-404.1-404.1-404.1
	S135.3,237.4,135.3,460.1c0,68.9,17.7,136.6,51.2,196.8l-16.2,9c-35.2-62.9-53.5-133.9-53.5-206c0-233,189.6-422.6,422.6-422.6
	S962,227.1,962,460.1C962,534.2,942.6,607,905.7,671.2z"/>
<path class="st2" d="M278.6,659.8c-44-57.2-67.9-127.5-67.6-199.7c0-181.1,147.4-328.5,328.5-328.5S867.9,279,867.9,460.1
	C868.1,532,844.5,602,800.8,659l-6.3-4.8c42.7-55.7,65.7-123.9,65.5-194.1c0-176.8-143.9-320.6-320.6-320.6S218.8,283.3,218.8,460.1
	c-0.2,70.5,23,139,66,194.9L278.6,659.8z"/>
<text transform="matrix(5.477582e-02 -0.9985 0.9985 5.477582e-02 204.5286 482.9864)" class="st1 st3 st4">M</text>
<text transform="matrix(0.2654 -0.9641 0.9641 0.2654 214.7262 385.0679)" class="st1 st3 st5">I</text>
<text transform="matrix(0.4263 -0.9046 0.9046 0.4263 226.8464 342.7762)" class="st1 st3 st6">T</text>
<text transform="matrix(0.6174 -0.7867 0.7867 0.6174 257.4146 280.8496)" class="st1 st3 st7">H</text>
<text transform="matrix(0.7894 -0.6139 0.6139 0.7894 309.7222 217.7381)" class="st1 st3 st8">A</text>
<text transform="matrix(0.9023 -0.4311 0.4311 0.9023 376.5775 169.6381)" class="st1 st3 st9">L</text>
<text transform="matrix(0.9585 -0.2852 0.2852 0.9585 432.2885 145.2486)" class="st1 st3 st10">I</text>
<text transform="matrix(0.9404 0.3401 -0.3401 0.9404 621.2747 136.2419)" class="st1 st3 st11">C</text>
<text transform="matrix(0.8211 0.5708 -0.5708 0.8211 699.8006 166.9383)" class="st1 st3 st12">O</text>
<text transform="matrix(0.6788 0.7343 -0.7343 0.6788 769.7054 219.4877)" class="st1 st3 st13">L</text>
<text transform="matrix(0.5408 0.8412 -0.8412 0.5408 809.6208 265.0702)" class="st1 st3 st14">L</text>
<text transform="matrix(0.3675 0.93 -0.93 0.3675 840.7674 316.8463)" class="st1 st3 st15">E</text>
<text transform="matrix(0.1487 0.9889 -0.9889 0.1487 863.9337 377.8563)" class="st1 st3 st16">G</text>
<text transform="matrix(-6.982626e-02 0.9976 -0.9976 -6.982626e-02 873.4857 462.3724)" class="st1 st3 st17">E</text>
<path class="st18" d="M361.4,611.6c7.7-19.6,4.3-51.7-2.4-67.8c-11.6,12.5-21,38.1-8.5,56.8c-10.1-7.7-24.1-12.8-51.4-15.6
	c-3.9-0.5-7.7-0.6-11.6-0.5C303.8,608.1,336.8,624.8,361.4,611.6z"/>
<path class="st18" d="M332.8,579.4c11.4-16.1,15.3-45.4,11.2-64.9c-17,13-26.5,34.8-18.6,53.5c-13.6-16.2-36.1-25.7-56-27.9
	C280,565.4,308.4,585.9,332.8,579.4z"/>
<path class="st18" d="M312.3,542.1c14-12.8,23.3-40.8,22.2-59.6c-17.5,9.5-30.3,29.2-26.7,48.2c-10.9-19.9-35.5-32.6-48-36.4
	C265.7,520.1,288.8,543.4,312.3,542.1z"/>
<path class="st18" d="M299.8,502.4c15.6-9.6,27.1-34.5,28.6-53c-16.7,6.3-31.1,20.4-31.6,37.9c-5.9-17.2-19.7-29.7-36.8-38.2
	C261.2,472.9,277.6,499.9,299.8,502.4z"/>
<path class="st18" d="M294.3,459.7c16.1-6.3,33.7-28.7,37.2-45.3c-22.3,4.8-35.3,20.6-37.4,35.3c-2.2-13.5-11.4-32.3-30.5-46.4
	C260.4,429.7,276.8,454.4,294.3,459.7z"/>
<path class="st18" d="M296.1,418.2c12.5-2.4,35.5-17.7,41.1-40.9c-24.1,5.8-36.1,20.9-39.8,32.4c0.3-11.4-3.9-30.3-24.4-45.8
	C269.9,382.4,279.4,410.1,296.1,418.2z"/>
<path class="st18" d="M303.8,377.4c12.8-1.4,34.8-16.5,39.8-38.7c-11.4,2.9-24.4,9-30.3,17.8c-3.2,4.5-5.9,9.2-8,14.3
	c1-9.8-1.4-28.4-22.5-44.6C278.4,348.3,292.5,371,303.8,377.4z"/>
<path class="st18" d="M312.1,336.6c10.8-1,33.1-14.6,37.6-36.6c-24.2,6.6-33.6,22.2-36.4,30.8c0.8-9.2-1.4-27.1-21.2-42.9
	C287.6,310.1,302.8,331.5,312.1,336.6z"/>
<path class="st18" d="M405.2,589.9c-2.7,8.2-9.2,44.3,13.2,67.3c-27.5-16.5-61.2-2.2-68.6,2.4c20.7,12.2,54.4,21.4,79.5,6.3
	C438.3,638.3,421.8,607.4,405.2,589.9z"/>
<path class="st18" d="M378.3,568.1c-12.7,19.9-12.5,45,5.5,62.1c-26-14.4-66.5-6.3-69.7-5.3c25.2,23.4,58.8,26.2,80,13.2
	C402.2,613.9,387.1,582.1,378.3,568.1z"/>
<path class="st18" d="M320.3,303.4c17.7-7.4,18.5-30.2,9.3-47.5C314.5,268.7,306.8,289.9,320.3,303.4z"/>
<path class="st18" d="M725.9,601c13-18.6,4.2-44.3-7.1-57.2c-7.1,15.9-11.4,48-4.2,67.6c24.2,13.8,57.6-2.1,74.5-24.9
	c-3.9-0.3-7.7-0.3-11.6,0.2C750.3,588.8,736.1,593.5,725.9,601z"/>
<path class="st18" d="M751.9,568.9c8.3-18.5-0.6-40.5-17.3-53.9c-4.5,19.3-1.4,48.8,9.5,65.2c24.2,7.2,53.1-12.7,64.5-37.7
	C788.6,544.2,766,553,751.9,568.9z"/>
<path class="st18" d="M770.3,532c4.2-18.8-8.2-38.9-25.4-48.8c-1.6,18.8,6.9,47,20.6,60.2c23.4,1.9,47-20.7,53.8-46.6
	C806.6,500.4,781.9,512.4,770.3,532z"/>
<path class="st18" d="M782.5,489.1c0-17.5-14.1-32.1-30.7-38.7c1,18.5,11.9,43.7,27.1,53.8c22.2-2.1,39.2-28.6,41.3-52.2
	C803.1,459.9,789,472.1,782.5,489.1z"/>
<path class="st18" d="M785.7,461.5c17.7-4.8,34.5-29.1,32.3-55.6c-19.4,13.6-29.2,32.1-31.8,45.6c-1.8-14.8-14.4-30.8-36.6-36.3
	C752.8,431.8,769.9,454.8,785.7,461.5z"/>
<path class="st18" d="M784.9,419.9c17-7.7,27.1-35.2,24.6-53.6C788.6,381.2,784,400,784,411.4c-3.4-11.7-15.1-27.1-39-33.6
	C749.9,401.3,772.4,417,784.9,419.9z"/>
<path class="st18" d="M778.4,378.8c11.2-6.1,26.2-28.4,22.5-50.7c-21.5,15.7-24.4,34.2-23.8,44.2c-1.9-5.1-4.5-10-7.7-14.4
	c-5.8-9-18.6-15.4-29.9-18.6C744,361.3,765.7,377.2,778.4,378.8z"/>
<path class="st18" d="M771,337.9c9.6-5,25.2-25.8,21.2-48c-20.1,15.1-22.8,33.1-22.3,42.2c-2.7-8.8-11.4-24.7-35.6-31.8
	C738.4,322.5,760.2,336.6,771,337.9z"/>
<path class="st18" d="M656.5,655.8c22.8-22.5,17.5-58.8,14.9-67c-17,17-34.4,47.4-26,75.3c24.6,15.7,58.6,7.4,79.5-4.2
	C717.7,655.1,684.4,639.9,656.5,655.8z"/>
<path class="st18" d="M691.7,629.6c18.5-16.9,19.3-41.9,7.2-62c-9.2,13.8-25,45.3-17.7,69.5c20.9,13.5,54.4,11.7,80.3-11.1
	C758.3,624.9,718.2,615.8,691.7,629.6z"/>
<path class="st18" d="M763.7,304.5c13.6-13.2,6.7-34.5-8.2-47.7C746.1,273.8,746.4,296.6,763.7,304.5z"/>
<path class="st18" d="M1038.3,827.7c0,0-290.8-116.1-500.9,49.9c0,0,246.8-87.7,516.2,9.3L1038.3,827.7z"/>
<path class="st18" d="M1016.9,793.7l-37.7-67.8c-290.8-56-435.1,134.7-435.1,134.7C786.5,703,1016.9,793.7,1016.9,793.7z"/>
<path class="st18" d="M944.2,701.7l-50.6-57.5c-282.4,0-349.5,200.7-349.5,200.7C660.7,668.8,944.2,701.7,944.2,701.7z"/>
<path class="st18" d="M36.3,827.7l-15.1,59.4c269.4-97.1,516.2-9.3,516.2-9.3C327,711.6,36.3,827.7,36.3,827.7z"/>
<path class="st18" d="M530.6,860.8c0,0-144.3-190.7-435.1-134.7l-37.9,67.8C57.8,793.7,288,703,530.6,860.8z"/>
<path class="st18" d="M530.6,845.1c0,0-67.1-200.7-349.5-200.7l-50.6,57.5C130.5,701.9,414.1,668.8,530.6,845.1z"/>
<path class="st19" d="M581.7,239.3c-23.6,11.9-52.5,2.4-64.4-21.2c-9-18-5.9-39.5,7.7-54.3c-3.2,1-6.3,2.2-9.2,3.7
	c-27.5,13.8-38.4,47.4-24.4,74.8c13.8,27.5,47.4,38.4,74.8,24.4c14.8-7.5,25.5-21.4,29.2-37.6C591.2,233.4,586.7,236.9,581.7,239.3z
	"/>
<polygon class="st19" points="551.2,189.4 555.2,199.8 566.4,200.4 557.8,207.5 560.5,218.3 551.2,212.3 541.7,218.3 544.6,207.5 
	535.9,200.4 547.2,199.8 "/>
<path class="st20" d="M76.9,787.4c-12.4,3.7-19.1,6.3-19.1,6.3l3.5-6.3H76.9z"/>
<path class="st20" d="M530.6,860.8c-49.8-32.8-104.4-57.5-161.8-73.4H447C502.9,824,530.6,860.8,530.6,860.8z"/>
<path class="st20" d="M478.9,787.4h19.9c22.8,31.8,31.3,56.5,31.8,57.6C516.3,823.4,498.8,804,478.9,787.4z"/>
<path class="st20" d="M544.1,845.1c0.3-1.1,8.8-25.8,31.8-57.6h19.9C575.7,804,558.4,823.4,544.1,845.1z"/>
<path class="st20" d="M706,787.4c-57.5,15.9-112.1,40.6-161.8,73.4c0,0,27.8-36.8,83.6-73.4H706z"/>
<path class="st20" d="M1016.9,793.7c0,0-6.7-2.7-19.1-6.3h15.6L1016.9,793.7z"/>
<path class="st1" d="M1052.6,902.9l20.4,72.7c5.6,20.1-6.1,40.9-26.2,46.6c-3.4,1-6.7,1.4-10.1,1.4H43.3
	c-20.9,0-37.7-16.9-37.7-37.7c0-2.7,0.3-5.6,1-8.3l16.9-75.1c267.2-95.4,511.4-9.5,513.9-8.7l0,0
	C539.8,892.9,784.9,806.7,1052.6,902.9z"/>
<text transform="matrix(1 0 0 1 195.1357 986.5918)" class="st21 st3 st22">Opus et orate</text>
</svg>
