<svg width="19" height="20" viewBox="0 0 19 20" fill="none" xmlns="http://www.w3.org/2000/svg">
<path fill-rule="evenodd" clip-rule="evenodd" d="M13.2285 6.34709V6.34709C12.9488 6.34709 12.6953 6.18357 12.576 5.92803C12.3608 5.46563 12.087 4.87469 11.925 4.55298C11.6858 4.0746 11.298 3.79624 10.761 3.79244C10.752 3.79168 7.248 3.79168 7.239 3.79244C6.702 3.79624 6.315 4.0746 6.075 4.55298C5.91375 4.87469 5.64 5.46563 5.42475 5.92803C5.3055 6.18357 5.05125 6.34709 4.77225 6.34709V6.34709C3.27525 6.34709 2.0625 7.57688 2.0625 9.09416V13.6087C2.0625 15.1252 3.27525 16.3558 4.77225 16.3558H13.2285C14.7248 16.3558 15.9375 15.1252 15.9375 13.6087V9.09416C15.9375 7.57688 14.7248 6.34709 13.2285 6.34709Z" stroke="#F5FFF9" stroke-width="1.52108" stroke-linecap="round" stroke-linejoin="round"/>
<path fill-rule="evenodd" clip-rule="evenodd" d="M6.61726 11.0812C6.61651 12.4144 7.68976 13.505 9.00226 13.5042C10.3125 13.5027 11.3828 12.4167 11.385 11.0865C11.3873 9.75099 10.3178 8.66266 9.00376 8.66113C7.68226 8.65961 6.60676 9.7662 6.61726 11.0812Z" stroke="#F5FFF9" stroke-width="1.52108" stroke-linecap="round" stroke-linejoin="round"/>
<path d="M12.6788 9.30189C12.6064 9.29435 12.5348 9.27517 12.4547 9.24246C12.3655 9.20229 12.2883 9.15119 12.2137 9.07431C12.0796 8.92969 12.002 8.74056 12.002 8.54545C12.002 8.44182 12.0228 8.3391 12.0637 8.24605C12.1045 8.15178 12.153 8.07225 12.2406 7.98575C12.3072 7.92691 12.3755 7.87956 12.4688 7.83788C12.7454 7.72671 13.0745 7.79314 13.2802 8.00161C13.3418 8.0632 13.3938 8.13752 13.4226 8.20019L13.4396 8.24463C13.4811 8.3391 13.502 8.44182 13.502 8.54545C13.502 8.74451 13.4253 8.92861 13.2831 9.08185C13.1601 9.20737 12.9986 9.28456 12.8264 9.30189L12.752 9.30562L12.6788 9.30189Z" fill="#F5FFF9"/>
</svg>
