<svg width="46" height="42" viewBox="0 0 46 42" fill="none" xmlns="http://www.w3.org/2000/svg">
<path d="M32.4382 36.504L31.1582 26.256C30.9768 24.8044 30.2713 23.4692 29.1745 22.5012C28.0777 21.5333 26.665 20.9994 25.2022 21H20.7942C19.332 21.0004 17.9203 21.5347 16.8243 22.5026C15.7283 23.4704 15.0235 24.8051 14.8422 26.256L13.5602 36.504C13.4898 37.067 13.54 37.6386 13.7075 38.1807C13.875 38.7228 14.1559 39.2231 14.5316 39.6483C14.9072 40.0736 15.3691 40.414 15.8864 40.6471C16.4038 40.8801 16.9648 41.0004 17.5322 41H28.4682C29.0354 41.0001 29.5962 40.8796 30.1133 40.6464C30.6304 40.4133 31.092 40.0728 31.4674 39.6476C31.8429 39.2224 32.1236 38.7222 32.291 38.1802C32.4583 37.6382 32.5085 37.0669 32.4382 36.504V36.504Z" stroke="#037230" stroke-width="2" stroke-linecap="round" stroke-linejoin="round"/>
<path d="M23 13C26.3137 13 29 10.3137 29 7C29 3.68629 26.3137 1 23 1C19.6863 1 17 3.68629 17 7C17 10.3137 19.6863 13 23 13Z" stroke="#037230" stroke-width="2"/>
<path d="M7 19C9.20914 19 11 17.2091 11 15C11 12.7909 9.20914 11 7 11C4.79086 11 3 12.7909 3 15C3 17.2091 4.79086 19 7 19Z" stroke="#037230" stroke-width="2"/>
<path d="M39 19C41.2091 19 43 17.2091 43 15C43 12.7909 41.2091 11 39 11C36.7909 11 35 12.7909 35 15C35 17.2091 36.7909 19 39 19Z" stroke="#037230" stroke-width="2"/>
<path d="M39.0002 25H39.6122C40.559 24.9999 41.4753 25.3357 42.1978 25.9476C42.9204 26.5596 43.4024 27.408 43.5582 28.342L44.2242 32.342C44.3197 32.9151 44.2893 33.5021 44.135 34.0623C43.9807 34.6224 43.7063 35.1422 43.3307 35.5855C42.9552 36.0288 42.4875 36.385 41.9604 36.6293C41.4332 36.8736 40.8592 37.0001 40.2782 37H33.0002M7.00017 25H6.38817C5.44129 24.9999 4.52508 25.3357 3.80252 25.9476C3.07997 26.5596 2.59793 27.408 2.44217 28.342L1.77617 32.342C1.6806 32.9151 1.71101 33.5021 1.86531 34.0623C2.01961 34.6224 2.29407 35.1422 2.66963 35.5855C3.04518 36.0288 3.5128 36.385 4.03996 36.6293C4.56712 36.8736 5.14117 37.0001 5.72217 37H13.0002L7.00017 25Z" stroke="#037230" stroke-width="2" stroke-linecap="round" stroke-linejoin="round"/>
</svg>
