<svg width="581" height="581" viewBox="0 0 581 581" fill="none" xmlns="http://www.w3.org/2000/svg">
<circle cx="290.279" cy="290.219" r="249.002" fill="#FFEFD2"/>
<path d="M580.155 290.219C580.155 450.312 450.374 580.094 290.28 580.094C130.187 580.094 0.405273 450.312 0.405273 290.219C0.405273 130.125 130.187 0.34375 290.28 0.34375C450.374 0.34375 580.155 130.125 580.155 290.219ZM90.4213 290.219C90.4213 400.598 179.901 490.078 290.28 490.078C400.659 490.078 490.139 400.598 490.139 290.219C490.139 179.84 400.659 90.3597 290.28 90.3597C179.901 90.3597 90.4213 179.84 90.4213 290.219Z" fill="#47FA90"/>
<path d="M580.155 290.219C580.155 450.312 450.374 580.094 290.28 580.094C130.187 580.094 0.405273 450.312 0.405273 290.219C0.405273 130.125 130.187 0.34375 290.28 0.34375C450.374 0.34375 580.155 130.125 580.155 290.219ZM48.2728 290.219C48.2728 423.876 156.623 532.226 290.28 532.226C423.937 532.226 532.288 423.876 532.288 290.219C532.288 156.562 423.937 48.2113 290.28 48.2113C156.623 48.2113 48.2728 156.562 48.2728 290.219Z" fill="#037230"/>
</svg>
