<svg id="Layer_1" data-name="Layer 1" xmlns="http://www.w3.org/2000/svg" xmlns:xlink="http://www.w3.org/1999/xlink" viewBox="0 0 595.28 841.89"><defs><style>.cls-1,.cls-102,.cls-103{fill:none;}.cls-1,.cls-102,.cls-103,.cls-104,.cls-117,.cls-121{stroke:#000;stroke-miterlimit:10;}.cls-1,.cls-117{stroke-width:2px;}.cls-2{fill:url(#linear-gradient);}.cls-3,.cls-5{fill:#0e8b45;}.cls-4{fill:#38b54f;}.cls-5{font-size:8.31px;font-family:Poppins-Bold, Poppins;}.cls-11,.cls-32,.cls-42,.cls-5,.cls-67,.cls-68,.cls-69,.cls-70,.cls-71,.cls-72,.cls-73,.cls-74,.cls-9{font-weight:700;}.cls-6,.cls-8{fill:#d7cd3c;}.cls-7{fill:#0c8945;}.cls-8{opacity:0.63;}.cls-9{font-size:9.68px;font-family:Helvetica-Bold, Helvetica;}.cls-27,.cls-9{fill:#fff;}.cls-10{font-size:9px;}.cls-10,.cls-105,.cls-111,.cls-37,.cls-43,.cls-44,.cls-45,.cls-46,.cls-47,.cls-48,.cls-49,.cls-50,.cls-51,.cls-53,.cls-54,.cls-55,.cls-56,.cls-57,.cls-58,.cls-59,.cls-60,.cls-61,.cls-79,.cls-84{font-family:Calibri;}.cls-11{font-size:24.58px;}.cls-104,.cls-105,.cls-11,.cls-111,.cls-117,.cls-121,.cls-32,.cls-37,.cls-42,.cls-79,.cls-84{fill:#231f20;}.cls-11,.cls-32,.cls-42,.cls-67,.cls-68,.cls-69,.cls-70,.cls-71,.cls-72,.cls-73,.cls-74{font-family:Calibri-Bold, Calibri;}.cls-12{letter-spacing:-0.01em;}.cls-13{letter-spacing:0em;}.cls-14{letter-spacing:-0.01em;}.cls-15{letter-spacing:-0.01em;}.cls-16{letter-spacing:-0.04em;}.cls-17{letter-spacing:-0.01em;}.cls-18{letter-spacing:-0.01em;}.cls-19{letter-spacing:-0.01em;}.cls-20{letter-spacing:-0.01em;}.cls-21{letter-spacing:-0.02em;}.cls-22{letter-spacing:-0.01em;}.cls-23{letter-spacing:-0.01em;}.cls-24{letter-spacing:-0.01em;}.cls-25{letter-spacing:0em;}.cls-26{fill:#0d8d45;}.cls-28{letter-spacing:-0.01em;}.cls-29{letter-spacing:0em;}.cls-30{letter-spacing:-0.06em;}.cls-31{letter-spacing:-0.01em;}.cls-32{font-size:19px;}.cls-33{letter-spacing:-0.01em;}.cls-34{letter-spacing:0em;}.cls-35{letter-spacing:-0.01em;}.cls-36{letter-spacing:0em;}.cls-111,.cls-37,.cls-42{font-size:12.33px;}.cls-38{letter-spacing:-0.01em;}.cls-39,.cls-49{letter-spacing:0em;}.cls-40,.cls-57,.cls-68{letter-spacing:-0.01em;}.cls-41,.cls-47{letter-spacing:-0.01em;}.cls-43,.cls-44,.cls-45,.cls-46,.cls-47,.cls-48,.cls-49,.cls-50,.cls-51,.cls-53,.cls-54,.cls-55,.cls-56,.cls-57,.cls-58,.cls-59,.cls-60,.cls-61{font-weight:400;}.cls-44{letter-spacing:-0.01em;}.cls-45,.cls-52{letter-spacing:-0.01em;}.cls-46,.cls-65{letter-spacing:-0.02em;}.cls-48{letter-spacing:-0.01em;}.cls-116,.cls-50{letter-spacing:-0.01em;}.cls-51,.cls-71,.cls-78{letter-spacing:0em;}.cls-53{letter-spacing:-0.01em;}.cls-54{letter-spacing:-0.04em;}.cls-55,.cls-70,.cls-75{letter-spacing:-0.01em;}.cls-56,.cls-63,.cls-69{letter-spacing:-0.01em;}.cls-58,.cls-64{letter-spacing:-0.01em;}.cls-59{letter-spacing:-0.02em;}.cls-60,.cls-66{letter-spacing:-0.01em;}.cls-61{letter-spacing:-0.01em;}.cls-62{letter-spacing:-0.01em;}.cls-72{letter-spacing:-0.02em;}.cls-73{letter-spacing:-0.02em;}.cls-74{letter-spacing:0em;}.cls-76{letter-spacing:-0.02em;}.cls-77{letter-spacing:-0.01em;}.cls-79{font-size:11.84px;}.cls-80{letter-spacing:-0.01em;}.cls-81{letter-spacing:-0.01em;}.cls-82{letter-spacing:0em;}.cls-83{letter-spacing:0em;}.cls-84{font-size:13.72px;}.cls-85{letter-spacing:-0.01em;}.cls-86{letter-spacing:-0.01em;}.cls-87{letter-spacing:-0.01em;}.cls-88{letter-spacing:-0.01em;}.cls-89{letter-spacing:-0.01em;}.cls-90{letter-spacing:0em;}.cls-91{letter-spacing:-0.01em;}.cls-92{letter-spacing:0em;}.cls-93{letter-spacing:-0.01em;}.cls-94{letter-spacing:-0.03em;}.cls-95{letter-spacing:-0.02em;}.cls-96{letter-spacing:0.01em;}.cls-97{letter-spacing:-0.02em;}.cls-98{letter-spacing:0em;}.cls-99{letter-spacing:-0.02em;}.cls-100{letter-spacing:0em;}.cls-101{letter-spacing:-0.02em;}.cls-103{stroke-dasharray:4.97 4.97;}.cls-104{stroke-dasharray:5;}.cls-105{font-size:9.8px;}.cls-106{letter-spacing:-0.02em;}.cls-107{letter-spacing:-0.01em;}.cls-108{letter-spacing:0em;}.cls-109{letter-spacing:-0.03em;}.cls-110{letter-spacing:-0.01em;}.cls-111{letter-spacing:-0.02em;}.cls-112{letter-spacing:-0.09em;}.cls-113{letter-spacing:-0.02em;}.cls-114{letter-spacing:-0.02em;}.cls-115{letter-spacing:0em;}.cls-118{letter-spacing:-0.01em;}.cls-119{letter-spacing:-0.01em;}.cls-120{letter-spacing:-0.02em;}.cls-122{letter-spacing:-0.02em;}</style><linearGradient id="linear-gradient" x1="60.9" y1="68.72" x2="81.88" y2="68.72" gradientUnits="userSpaceOnUse"><stop offset="0" stop-color="#0d723c"/><stop offset="0.11" stop-color="#10753c"/><stop offset="0.2" stop-color="#1b7d3d"/><stop offset="0.29" stop-color="#2d8b3f"/><stop offset="0.38" stop-color="#469f42"/><stop offset="0.46" stop-color="#67b945"/><stop offset="0.48" stop-color="#6dbe46"/><stop offset="0.53" stop-color="#52a943"/><stop offset="0.59" stop-color="#399541"/><stop offset="0.66" stop-color="#25853f"/><stop offset="0.73" stop-color="#187a3d"/><stop offset="0.83" stop-color="#0f743c"/><stop offset="1" stop-color="#0d723c"/></linearGradient></defs><title>mithali college flyer</title><rect class="cls-1" x="435.89" y="20.53" width="100.46" height="94.82"/><path class="cls-2" d="M77.53,47.37h.13c-5.22-2-12.42,0-12.42,0-1.24,19.37-4.34,21-4.34,21C65.12,70.59,70.83,91,70.83,91V73.83a1.75,1.75,0,1,1,1,.07V91h.12s5.72-20.36,9.94-22.6C81.88,68.35,78.77,66.74,77.53,47.37Z"/><path class="cls-3" d="M105.64,81.93l-1.51-.87a37.86,37.86,0,1,0-65.88-.46l-1.52.85a39.61,39.61,0,1,1,68.91.48Z"/><path class="cls-4" d="M46.87,80.86a30.78,30.78,0,1,1,49-.06l-.6-.46a29.7,29.7,0,0,0,6.14-18.19A30,30,0,1,0,47.46,80.41Z"/><text class="cls-5" transform="translate(39.94 64.29) rotate(-86.86)">M</text><text class="cls-5" transform="translate(40.89 55.11) rotate(-74.6)">I</text><text class="cls-5" transform="translate(42.03 51.14) rotate(-64.76)">T</text><text class="cls-5" transform="translate(44.89 45.35) rotate(-51.82)">H</text><text class="cls-5" transform="matrix(0.79, -0.61, 0.61, 0.79, 49.81, 39.42)">A</text><text class="cls-5" transform="translate(56.07 34.92) rotate(-25.63)">L</text><text class="cls-5" transform="translate(61.31 32.63) rotate(-16.51)">I</text><text class="cls-5" transform="matrix(0.99, -0.16, 0.16, 0.99, 65.35, 31.57)"> </text><text class="cls-5" transform="matrix(1, -0.05, 0.05, 1, 68.77, 31.1)"> </text><text class="cls-5" transform="matrix(1, 0.05, -0.05, 1, 72.22, 31.01)"> </text><text class="cls-5" transform="matrix(0.99, 0.16, -0.16, 0.99, 75.66, 31.3)"> </text><text class="cls-5" transform="matrix(0.94, 0.34, -0.34, 0.94, 79, 31.8)">C</text><text class="cls-5" transform="translate(86.39 34.69) rotate(34.75)">O</text><text class="cls-5" transform="matrix(0.68, 0.73, -0.73, 0.68, 92.92, 39.62)">L</text><text class="cls-5" transform="translate(96.66 43.9) rotate(57.66)">L</text><text class="cls-5" transform="translate(99.58 48.76) rotate(68.53)">E</text><text class="cls-5" transform="translate(101.74 54.47) rotate(81.52)">G</text><text class="cls-5" transform="translate(102.63 62.4) rotate(94.27)">E</text><path class="cls-6" d="M54.63,76.34A10.07,10.07,0,0,0,54.41,70c-1.08,1.17-2,3.56-.8,5.34-1-.73-2.25-1.2-4.81-1.46a6.24,6.24,0,0,0-1.09-.05C49.24,76,52.34,77.58,54.63,76.34Z"/><path class="cls-6" d="M52,73.32a8.94,8.94,0,0,0,1-6.08,4.4,4.4,0,0,0-1.76,5A8.31,8.31,0,0,0,46,69.63C47,72,49.67,73.94,52,73.32Z"/><path class="cls-6" d="M50,69.83a8.1,8.1,0,0,0,2.08-5.59,4.51,4.51,0,0,0-2.5,4.51,8.42,8.42,0,0,0-4.5-3.41C45.67,67.77,47.83,70,50,69.83Z"/><path class="cls-6" d="M48.86,66.12a7.18,7.18,0,0,0,2.68-5,4.24,4.24,0,0,0-3,3.56,6.54,6.54,0,0,0-3.44-3.58C45.25,63.34,46.78,65.87,48.86,66.12Z"/><path class="cls-6" d="M48.35,62.11a6.91,6.91,0,0,0,3.48-4.24,4.26,4.26,0,0,0-3.51,3.3,7.17,7.17,0,0,0-2.86-4.35C45.18,59.3,46.71,61.61,48.35,62.11Z"/><path class="cls-6" d="M48.52,58.22a5.64,5.64,0,0,0,3.86-3.84,4.92,4.92,0,0,0-3.74,3,5.19,5.19,0,0,0-2.28-4.29C46.06,54.85,47,57.46,48.52,58.22Z"/><path class="cls-6" d="M49.24,54.39A5,5,0,0,0,53,50.76a5,5,0,0,0-2.84,1.67,6.49,6.49,0,0,0-.75,1.33,4.74,4.74,0,0,0-2.11-4.18A5,5,0,0,0,49.24,54.39Z"/><path class="cls-6" d="M50,50.57a4.69,4.69,0,0,0,3.52-3.43A4.6,4.6,0,0,0,50.14,50a4.66,4.66,0,0,0-2-4A4.69,4.69,0,0,0,50,50.57Z"/><path class="cls-6" d="M58.75,74.32c-.27.76-.86,4.15,1.22,6.31-2.57-1.55-5.73-.21-6.42.22,1.94,1.14,5.1,2,7.44.58C61.84,78.84,60.3,76,58.75,74.32Z"/><path class="cls-6" d="M56.22,72.26a4.51,4.51,0,0,0,.52,5.83c-2.44-1.35-6.23-.59-6.53-.5a6.42,6.42,0,0,0,7.5,1.23C58.46,76.56,57,73.58,56.22,72.26Z"/><path class="cls-6" d="M50.78,47.46c1.65-.69,1.73-2.83.88-4.45C50.24,44.21,49.53,46.19,50.78,47.46Z"/><path class="cls-6" d="M88.79,75.35c1.22-1.74.4-4.16-.66-5.35a10.07,10.07,0,0,0-.39,6.34c2.27,1.3,5.4-.2,7-2.34a6.7,6.7,0,0,0-1.09,0C91.07,74.21,89.76,74.64,88.79,75.35Z"/><path class="cls-6" d="M91.23,72.34a4.41,4.41,0,0,0-1.62-5.06,8.83,8.83,0,0,0,.89,6.11c2.27.67,5-1.19,6-3.54A8.37,8.37,0,0,0,91.23,72.34Z"/><path class="cls-6" d="M93,68.88a4.53,4.53,0,0,0-2.38-4.58,8.09,8.09,0,0,0,1.93,5.64c2.2.19,4.42-1.94,5-4.36A8.46,8.46,0,0,0,93,68.88Z"/><path class="cls-6" d="M94.1,64.86a4.22,4.22,0,0,0-2.87-3.63,7.2,7.2,0,0,0,2.55,5c2.08-.2,3.68-2.68,3.86-4.89A6.56,6.56,0,0,0,94.1,64.86Z"/><path class="cls-6" d="M94.4,62.27c1.65-.45,3.24-2.73,3-5.21a7.16,7.16,0,0,0-3,4.28A4.27,4.27,0,0,0,91,57.94,6.88,6.88,0,0,0,94.4,62.27Z"/><path class="cls-6" d="M94.33,58.38c1.59-.72,2.54-3.3,2.29-5a5.2,5.2,0,0,0-2.39,4.23,4.93,4.93,0,0,0-3.66-3.14A5.63,5.63,0,0,0,94.33,58.38Z"/><path class="cls-6" d="M93.71,54.53a5.05,5.05,0,0,0,2.11-4.76A4.74,4.74,0,0,0,93.6,53.9a6.88,6.88,0,0,0-.72-1.35,5.07,5.07,0,0,0-2.8-1.74A5,5,0,0,0,93.71,54.53Z"/><path class="cls-6" d="M93,50.7a4.69,4.69,0,0,0,2-4.5,4.65,4.65,0,0,0-2.09,4,4.62,4.62,0,0,0-3.33-3A4.72,4.72,0,0,0,93,50.7Z"/><path class="cls-6" d="M82.29,80.48c2.14-2.1,1.64-5.5,1.39-6.28-1.59,1.6-3.21,4.45-2.43,7.06,2.3,1.47,5.49.7,7.46-.39C88,80.42,84.9,79,82.29,80.48Z"/><path class="cls-6" d="M85.59,78a4.49,4.49,0,0,0,.67-5.82c-.85,1.3-2.35,4.24-1.65,6.52a6.39,6.39,0,0,0,7.52-1C91.83,77.6,88.07,76.74,85.59,78Z"/><path class="cls-6" d="M92.35,47.57c1.28-1.24.63-3.24-.76-4.48C90.69,44.69,90.72,46.83,92.35,47.57Z"/><path class="cls-6" d="M118.08,96.6s-27.25-10.88-46.95,4.68c0,0,23.12-8.22,48.36.88Z"/><path class="cls-6" d="M116.07,93.41l-3.54-6.35C85.28,81.81,71.75,99.69,71.75,99.69,94.48,84.9,116.07,93.41,116.07,93.41Z"/><path class="cls-6" d="M109.26,84.79l-4.75-5.39C78,79.4,71.75,98.22,71.75,98.22,82.69,81.7,109.26,84.79,109.26,84.79Z"/><path class="cls-6" d="M24.18,96.6l-1.42,5.56c25.25-9.1,48.37-.88,48.37-.88C51.43,85.72,24.18,96.6,24.18,96.6Z"/><path class="cls-6" d="M70.5,99.69S57,81.81,29.72,87.06l-3.54,6.35S47.77,84.9,70.5,99.69Z"/><path class="cls-6" d="M70.5,98.22S64.21,79.4,37.74,79.4L33,84.79S59.57,81.7,70.5,98.22Z"/><path class="cls-7" d="M75.27,41.46A4.49,4.49,0,0,1,70,34.38a5,5,0,0,0-.87.35,5.21,5.21,0,1,0,7.45,5.78A4.5,4.5,0,0,1,75.27,41.46Z"/><polygon class="cls-7" points="72.42 36.78 72.8 37.76 73.85 37.81 73.03 38.47 73.3 39.49 72.42 38.92 71.54 39.49 71.81 38.47 71 37.81 72.04 37.76 72.42 36.78"/><path class="cls-8" d="M28,92.82c-1.16.34-1.79.59-1.79.59l.33-.59Z"/><path class="cls-8" d="M70.5,99.69a53.67,53.67,0,0,0-15.17-6.87h7.33A33.45,33.45,0,0,1,70.5,99.69Z"/><path class="cls-8" d="M65.66,92.82h1.86a22.4,22.4,0,0,1,3,5.39A24.88,24.88,0,0,0,65.66,92.82Z"/><path class="cls-8" d="M71.75,98.21a23.3,23.3,0,0,1,3-5.39H76.6A24.92,24.92,0,0,0,71.75,98.21Z"/><path class="cls-8" d="M86.92,92.82a53.8,53.8,0,0,0-15.17,6.87,33.45,33.45,0,0,1,7.84-6.87Z"/><path class="cls-8" d="M116.07,93.41s-.63-.25-1.79-.59h1.46Z"/><path class="cls-3" d="M119.41,103.63l1.91,6.82a3.54,3.54,0,0,1-3.41,4.49H24.83a3.54,3.54,0,0,1-3.45-4.32l1.59-7c25-8.93,47.93-.89,48.16-.81h0C71.36,102.7,94.33,94.63,119.41,103.63Z"/><text class="cls-9" transform="translate(39.06 111.48)">Opus et orate</text><text class="cls-10" transform="translate(332.53 94.38)">(+234)8033285923</text><text class="cls-11" transform="translate(130.43 57.06)">MITHALI <tspan class="cls-12" x="93.1" y="0">C</tspan><tspan class="cls-13" x="105.93" y="0">OLL</tspan><tspan class="cls-14" x="143.34" y="0">E</tspan><tspan x="154.97" y="0">GE</tspan></text><text class="cls-10" transform="translate(144.48 79.68)"><tspan class="cls-15">Z</tspan><tspan x="4.09" y="0">one 4, </tspan><tspan class="cls-16" x="28.92" y="0">W</tspan><tspan x="36.54" y="0">onder land e</tspan><tspan class="cls-17" x="82.74" y="0">s</tspan><tspan class="cls-18" x="86.16" y="0">t</tspan><tspan class="cls-19" x="89.07" y="0">a</tspan><tspan class="cls-20" x="93.3" y="0">t</tspan><tspan x="96.21" y="0">e, les</tspan><tspan class="cls-21" x="115.04" y="0">o</tspan><tspan x="119.62" y="0">, via </tspan><tspan class="cls-22" x="136.38" y="0">c</tspan><tspan x="140.11" y="0">amp, Abeo</tspan><tspan class="cls-23" x="179.78" y="0">k</tspan><tspan x="183.75" y="0">u</tspan><tspan class="cls-24" x="188.48" y="0">t</tspan><tspan class="cls-25" x="191.39" y="0">a, Ogun </tspan><tspan class="cls-17" x="221.66" y="0">s</tspan><tspan class="cls-18" x="225.08" y="0">t</tspan><tspan class="cls-19" x="227.99" y="0">a</tspan><tspan class="cls-20" x="232.22" y="0">t</tspan><tspan x="235.13" y="0">e.</tspan></text><circle class="cls-26" cx="136.13" cy="76.64" r="5.43"/><path class="cls-27" d="M136.14,73.52a2.55,2.55,0,0,0-2.55,2.54c0,1.37,2.35,4,2.45,4.14a.13.13,0,0,0,.18,0h0c.1-.12,2.45-2.77,2.45-4.14a2.54,2.54,0,0,0-2.54-2.54Zm0,6.39c-.45-.52-2.29-2.73-2.29-3.85a2.29,2.29,0,0,1,4.57,0c0,1.12-1.84,3.33-2.28,3.85Zm0,0"/><path class="cls-27" d="M136.13,80.39h0a.26.26,0,0,1-.19-.09c-.11-.12-2.49-2.81-2.49-4.24a2.7,2.7,0,0,1,2.7-2.69h0a2.7,2.7,0,0,1,2.69,2.69c0,1.35-2.07,3.76-2.48,4.23l0,0A.26.26,0,0,1,136.13,80.39Zm0-6.46A2.14,2.14,0,0,0,134,76.06c0,1,1.51,2.87,2.14,3.62,1.05-1.25,2.13-2.81,2.13-3.62A2.14,2.14,0,0,0,136.14,73.93Z"/><path class="cls-27" d="M136.18,74.79a1.39,1.39,0,1,0,1.38,1.38,1.38,1.38,0,0,0-1.38-1.38Zm0,2.5a1.12,1.12,0,1,1,1.12-1.11,1.12,1.12,0,0,1-1.12,1.11Zm0,0"/><path class="cls-27" d="M136.18,77.71a1.51,1.51,0,0,1-1.08-.45,1.53,1.53,0,0,1,0-2.17,1.51,1.51,0,0,1,1.08-.45h0a1.54,1.54,0,0,1,0,3.07Zm0-2.5a1,1,0,1,0,1,1A1,1,0,0,0,136.18,75.21Z"/><circle class="cls-26" cx="135.87" cy="109.66" r="5.43"/><path class="cls-27" d="M138.75,108.33h0v-.13a.47.47,0,0,0-.47-.47h-4.82a.48.48,0,0,0-.48.47v3.23a.48.48,0,0,0,.48.47h4.64c.49,0,.64-.13.65-.47Zm-.82-.49-2.07,1.52-2.05-1.52ZM133.74,109l1.92,1.32h0l-1.92,1.34Zm0,2.76,2-1.36,0,0,.07,0,.1,0,2,1.36Zm4.19-.1-1.92-1.34,1.07-.73L138,109Z"/><text class="cls-10" transform="translate(144.48 111.1)">Mithali<tspan class="cls-28" x="25.95" y="0">c</tspan><tspan x="29.68" y="0">olle</tspan><tspan class="cls-28" x="43.03" y="0">g</tspan><tspan x="47.19" y="0">e@gmail.</tspan><tspan class="cls-28" x="81.86" y="0">c</tspan><tspan x="85.59" y="0">om</tspan></text><text class="cls-10" transform="translate(144.48 95.26)"><tspan class="cls-29">ww</tspan><tspan class="cls-30" x="12.94" y="0">w</tspan><tspan class="cls-25" x="18.8" y="0">.mithali</tspan><tspan class="cls-22" x="46.51" y="0">c</tspan><tspan x="50.24" y="0">olle</tspan><tspan class="cls-22" x="63.59" y="0">g</tspan><tspan x="67.75" y="0">e.</tspan><tspan class="cls-31" x="74.5" y="0">c</tspan><tspan x="78.24" y="0">om</tspan></text><circle class="cls-26" cx="135.97" cy="93.25" r="5.43"/><path class="cls-27" d="M136,89.89c-.32,0-.94,1-1,3h2C136.91,90.94,136.3,89.89,136,89.89Z"/><path class="cls-27" d="M135,93.63c.07,1.93.69,3,1,3s.94-1,1-3Z"/><path class="cls-27" d="M137.75,92.86h1.94a3.74,3.74,0,0,0-2.82-3.25A6,6,0,0,1,137.75,92.86Z"/><path class="cls-27" d="M134.19,92.86a6,6,0,0,1,.89-3.25,3.74,3.74,0,0,0-2.83,3.25Z"/><path class="cls-27" d="M137.75,93.63a6,6,0,0,1-.88,3.25,3.73,3.73,0,0,0,2.82-3.25Z"/><path class="cls-27" d="M134.19,93.63h-1.94a3.73,3.73,0,0,0,2.83,3.25A6,6,0,0,1,134.19,93.63Z"/><text class="cls-10" transform="translate(259.82 95.34)">(+234)9072826079</text><path class="cls-26" d="M244.09,93.12a5.44,5.44,0,1,1,5.43,5.43A5.43,5.43,0,0,1,244.09,93.12Z"/><path id="path17-6" class="cls-27" d="M251.91,94.44l-.55-.4c-.37-.25-.7-.27-1,.14a.42.42,0,0,1-.59.14A2.6,2.6,0,0,1,248.4,93a.53.53,0,0,1,.17-.73.52.52,0,0,0,.3-.46,3.11,3.11,0,0,0-1-1.4.53.53,0,0,0-.35,0,1,1,0,0,0-.68,1.43,7.39,7.39,0,0,0,4.1,4.13c.11,0,.23.06.3.08a1.35,1.35,0,0,0,1.09-.84c.14-.4-.16-.56-.39-.75Z"/><text class="cls-32" transform="translate(159.47 147.31)"><tspan class="cls-33">S</tspan><tspan x="8.79" y="0">TUDEN</tspan><tspan class="cls-34" x="64.37" y="0">T</tspan><tspan x="73.68" y="0">S ADMISSION </tspan><tspan class="cls-35" x="184.8" y="0">F</tspan><tspan class="cls-36" x="193.39" y="0">ORM</tspan></text><text class="cls-32" transform="translate(20.94 408.42)">B</text><text class="cls-32" transform="translate(19.94 161.19)">A</text><text class="cls-37" transform="translate(35.21 760.74)">Stude<tspan class="cls-38" x="28.88" y="0">n</tspan><tspan class="cls-39" x="35.24" y="0">t Sign</tspan><tspan class="cls-40" x="62.92" y="0">a</tspan><tspan x="68.71" y="0">tu</tspan><tspan class="cls-41" x="79.32" y="0">r</tspan><tspan x="83.45" y="0">e</tspan></text><text class="cls-42" transform="translate(32.06 787.06)">*<tspan class="cls-43" x="6.14" y="0">Compl</tspan><tspan class="cls-44" x="38.36" y="0">e</tspan><tspan class="cls-45" x="44.43" y="0">t</tspan><tspan class="cls-43" x="48.43" y="0">ed </tspan><tspan class="cls-46" x="63.82" y="0">f</tspan><tspan class="cls-43" x="67.32" y="0">orm should be </tspan><tspan class="cls-47" x="142.51" y="0">r</tspan><tspan class="cls-48" x="146.65" y="0">e</tspan><tspan class="cls-49" x="152.72" y="0">tu</tspan><tspan class="cls-47" x="163.32" y="0">r</tspan><tspan class="cls-43" x="167.46" y="0">ed </tspan><tspan class="cls-50" x="182.85" y="0">t</tspan><tspan class="cls-51" x="186.86" y="0">o </tspan><tspan x="196.15" y="0">Mithali Colle</tspan><tspan class="cls-52" x="261.17" y="0">g</tspan><tspan x="266.88" y="0">e </tspan><tspan class="cls-43" x="275.87" y="0">,</tspan><tspan class="cls-53" x="278.95" y="0">Z</tspan><tspan class="cls-51" x="284.55" y="0">one 4, </tspan><tspan class="cls-54" x="318.55" y="0">W</tspan><tspan class="cls-43" x="329" y="0">onder land e</tspan><tspan class="cls-55" x="392.27" y="0">s</tspan><tspan class="cls-56" x="396.96" y="0">t</tspan><tspan class="cls-57" x="400.93" y="0">a</tspan><tspan class="cls-58" x="406.72" y="0">t</tspan><tspan class="cls-43" x="410.72" y="0">e, les</tspan><tspan class="cls-59" x="436.5" y="0">o</tspan><tspan class="cls-51" x="442.77" y="0">, via </tspan><tspan class="cls-60" x="465.72" y="0">c</tspan><tspan class="cls-43" x="470.83" y="0">amp, Abeo</tspan><tspan class="cls-61" x="525.16" y="0">k</tspan><tspan class="cls-43" x="530.61" y="0">u</tspan><tspan class="cls-56" x="537.09" y="0">t</tspan><tspan class="cls-43" x="541.06" y="0">a,</tspan><tspan class="cls-43"><tspan x="0" y="14.79">Ogun </tspan><tspan class="cls-62" x="29.7" y="14.79">s</tspan><tspan class="cls-63" x="34.38" y="14.79">t</tspan><tspan class="cls-40" x="38.36" y="14.79">a</tspan><tspan class="cls-64" x="44.15" y="14.79">t</tspan><tspan x="48.15" y="14.79">e. or the place of </tspan><tspan class="cls-65" x="135.68" y="14.79">f</tspan><tspan x="139.18" y="14.79">orm </tspan><tspan class="cls-66" x="162.61" y="14.79">c</tspan><tspan x="167.72" y="14.79">ollection </tspan><tspan class="cls-67" x="213.85" y="14.79">not l</tspan><tspan class="cls-68" x="237.18" y="14.79">at</tspan><tspan class="cls-69" x="243.15" y="14.79">t</tspan><tspan class="cls-67" x="251.09" y="14.79">er than 12th Augu</tspan><tspan class="cls-70" x="343.55" y="14.79">s</tspan><tspan class="cls-67" x="348.33" y="14.79">t, 2022</tspan><tspan x="383.55" y="14.79">.</tspan><tspan class="cls-71" x="386.66" y="14.79" xml:space="preserve"> E</tspan><tspan class="cls-68" x="395.46" y="14.79">n</tspan><tspan class="cls-67" x="401.96" y="14.79">t</tspan><tspan class="cls-72" x="406.24" y="14.79">r</tspan><tspan class="cls-67" x="410.35" y="14.79">ance </tspan><tspan class="cls-73" x="437.2" y="14.79">ex</tspan><tspan class="cls-67" x="448.68" y="14.79">am </tspan><tspan class="cls-74" x="467.58" y="14.79">c</tspan><tspan class="cls-71" x="472.67" y="14.79">omes up on</tspan></tspan><tspan x="0" y="29.58">the 20th of Augu</tspan><tspan class="cls-75" x="85.9" y="29.58">s</tspan><tspan x="90.68" y="29.58">t, 2022.</tspan></text><text class="cls-37" transform="translate(416.41 760.74)"><tspan class="cls-76">P</tspan><tspan x="6.1" y="0">a</tspan><tspan class="cls-41" x="12.01" y="0">r</tspan><tspan x="16.14" y="0">e</tspan><tspan class="cls-38" x="22.27" y="0">n</tspan><tspan x="28.64" y="0">t/Gua</tspan><tspan class="cls-77" x="57.68" y="0">r</tspan><tspan class="cls-78" x="61.81" y="0">dian Sign</tspan><tspan class="cls-40" x="107.05" y="0">a</tspan><tspan class="cls-39" x="112.84" y="0">tu</tspan><tspan class="cls-41" x="123.45" y="0">r</tspan><tspan x="127.58" y="0">e</tspan></text><text class="cls-79" transform="translate(35.06 710.3)">I</text><text class="cls-79" transform="translate(435.89 710.3)">pled<tspan class="cls-80" x="21.04" y="0">g</tspan><tspan x="26.51" y="0">e </tspan><tspan class="cls-81" x="35.08" y="0">t</tspan><tspan x="38.93" y="0">o abide </tspan><tspan class="cls-82" x="77.23" y="0">b</tspan><tspan class="cls-83" x="83.39" y="0">y the</tspan></text><text class="cls-84" transform="translate(31.34 176.66)">Name in full: </text><text class="cls-84" transform="translate(31.34 206.75)">Co<tspan class="cls-85" x="14.55" y="0">n</tspan><tspan class="cls-86" x="21.63" y="0">t</tspan><tspan x="26.06" y="0">act Add</tspan><tspan class="cls-87" x="68.49" y="0">r</tspan><tspan x="73.1" y="0">ess:</tspan></text><text class="cls-84" transform="translate(31.34 235.53)">D<tspan class="cls-85" x="8.44" y="0">a</tspan><tspan class="cls-88" x="14.89" y="0">t</tspan><tspan x="19.34" y="0">e of birth:</tspan></text><text class="cls-84" transform="translate(243.63 235.53)">Gender:</text><text class="cls-84" transform="translate(391.98 235.53)">A<tspan class="cls-89" x="7.94" y="0">g</tspan><tspan x="14.28" y="0">e:</tspan></text><text class="cls-84" transform="translate(31.34 266.85)">P<tspan class="cls-90" x="7.09" y="0">r</tspan><tspan x="11.94" y="0">y sc. </tspan><tspan class="cls-85" x="38.99" y="0">a</tspan><tspan class="cls-91" x="45.43" y="0">tt</tspan><tspan class="cls-92" x="53.99" y="0">ended:</tspan></text><text class="cls-84" transform="translate(31.34 297.65)">La<tspan class="cls-93" x="12.34" y="0">s</tspan><tspan x="17.55" y="0">t class </tspan><tspan class="cls-94" x="54.61" y="0">A</tspan><tspan class="cls-91" x="62.2" y="0">tt</tspan><tspan x="70.76" y="0">ended:</tspan></text><text class="cls-84" transform="translate(31.34 329.89)">N<tspan class="cls-85" x="8.86" y="0">a</tspan><tspan x="15.3" y="0">tionality:</tspan></text><text class="cls-84" transform="translate(221.33 329.89)">S<tspan class="cls-86" x="6.3" y="0">t</tspan><tspan class="cls-85" x="10.73" y="0">a</tspan><tspan class="cls-91" x="17.18" y="0">t</tspan><tspan x="21.63" y="0">e of origin:</tspan></text><text class="cls-84" transform="translate(435.89 329.89)">L<tspan class="cls-95" x="5.77" y="0">.</tspan><tspan x="8.98" y="0">G</tspan><tspan class="cls-96" x="17.63" y="0">.</tspan><tspan x="21.18" y="0">A:</tspan></text><text class="cls-84" transform="translate(31.34 361.76)">Blood g<tspan class="cls-97" x="41.85" y="0">r</tspan><tspan class="cls-98" x="46.42" y="0">oup:</tspan></text><text class="cls-84" transform="translate(221.33 361.76)"><tspan class="cls-99">K</tspan><tspan x="6.91" y="0">n</tspan><tspan class="cls-100" x="14.12" y="0">o</tspan><tspan x="21.31" y="0">wn illness:</tspan></text><text class="cls-84" transform="translate(405.75 361.64)">Allegy:</text><text class="cls-84" transform="translate(31.34 383.72)"><tspan class="cls-101">R</tspan><tspan x="7.21" y="0">eligion:</tspan></text><line class="cls-102" x1="104.73" y1="176.66" x2="107.23" y2="176.66"/><line class="cls-103" x1="112.21" y1="176.66" x2="517.61" y2="176.66"/><line class="cls-102" x1="520.1" y1="176.66" x2="522.6" y2="176.66"/><line class="cls-104" x1="129.29" y1="206.75" x2="526.41" y2="206.75"/><line class="cls-104" x1="109.46" y1="235.53" x2="237.1" y2="235.53"/><line class="cls-104" x1="291.47" y1="235.53" x2="381.41" y2="235.53"/><line class="cls-104" x1="419.17" y1="235.53" x2="532.75" y2="235.53"/><text class="cls-105" transform="translate(139.67 188.77)">Surname </text><text class="cls-105" transform="translate(299.72 188.77)">Fi<tspan class="cls-106" x="6.75" y="0">r</tspan><tspan class="cls-107" x="10" y="0">s</tspan><tspan class="cls-108" x="13.73" y="0">t name</tspan></text><text class="cls-105" transform="translate(429.32 188.77)">Other name</text><line class="cls-104" x1="126.76" y1="266.85" x2="412.25" y2="266.85"/><line class="cls-104" x1="143.48" y1="297.65" x2="412.25" y2="297.65"/><line class="cls-104" x1="98.62" y1="329.89" x2="210.7" y2="329.89"/><line class="cls-104" x1="306.75" y1="330.4" x2="427.82" y2="330.4"/><line class="cls-104" x1="470.71" y1="329.89" x2="551.66" y2="329.89"/><line class="cls-104" x1="105.08" y1="361.64" x2="210.7" y2="361.64"/><line class="cls-104" x1="303.98" y1="361.76" x2="397.73" y2="361.76"/><line class="cls-104" x1="445.81" y1="361.76" x2="551.66" y2="361.76"/><line class="cls-104" x1="84.43" y1="383.72" x2="272.91" y2="383.72"/><text class="cls-37" transform="translate(35.06 413.21)">Name of <tspan class="cls-109" x="45.67" y="0">F</tspan><tspan class="cls-110" x="51.01" y="0">a</tspan><tspan x="56.8" y="0">ther/Gua</tspan><tspan class="cls-77" x="102.75" y="0">r</tspan><tspan x="106.88" y="0">dian:</tspan></text><text class="cls-37" transform="translate(431.29 413.22)">Sign<tspan class="cls-110" x="20.77" y="0">a</tspan><tspan x="26.56" y="0">tu</tspan><tspan class="cls-41" x="37.17" y="0">r</tspan><tspan x="41.3" y="0">e</tspan></text><text class="cls-37" transform="translate(35.21 436.47)">Occup<tspan class="cls-40" x="31.54" y="0">a</tspan><tspan x="37.33" y="0">tion:</tspan></text><text class="cls-111" transform="translate(272.91 446.47)">R<tspan class="cls-78" x="6.48" y="0">eligion:</tspan></text><text class="cls-37" transform="translate(35.21 460.06)">Co<tspan class="cls-40" x="13.07" y="0">n</tspan><tspan class="cls-63" x="19.43" y="0">t</tspan><tspan x="23.41" y="0">act Add</tspan><tspan class="cls-41" x="61.53" y="0">r</tspan><tspan x="65.66" y="0">ess:</tspan></text><text class="cls-37" transform="translate(35.21 482.79)">Place of <tspan class="cls-40" x="42.28" y="0">w</tspan><tspan x="50.98" y="0">ork:</tspan></text><text class="cls-37" transform="translate(221.95 482.79)"><tspan class="cls-112">T</tspan><tspan x="4.91" y="0">elephone no.</tspan></text><text class="cls-37" transform="translate(403.02 482.79)">Email add<tspan class="cls-41" x="49.07" y="0">r</tspan><tspan x="53.2" y="0">ess:</tspan></text><line class="cls-104" x1="172.41" y1="413.21" x2="423.71" y2="413.21"/><line class="cls-104" x1="483.35" y1="413.21" x2="551.24" y2="413.21"/><line class="cls-104" x1="98.06" y1="436.47" x2="264.65" y2="436.47"/><line class="cls-104" x1="319.71" y1="436.47" x2="497.12" y2="436.47"/><line class="cls-104" x1="122.29" y1="460.06" x2="571.24" y2="460.06"/><line class="cls-104" x1="110.29" y1="482.79" x2="215.71" y2="482.79"/><line class="cls-104" x1="295.24" y1="482.79" x2="395.47" y2="482.79"/><line class="cls-104" x1="478.29" y1="482.79" x2="565.94" y2="482.79"/><text class="cls-37" transform="translate(35.06 611.58)">Name of Sponsor( if di<tspan class="cls-113" x="111.61" y="0">ff</tspan><tspan x="118.5" y="0">er f</tspan><tspan class="cls-114" x="135.48" y="0">r</tspan><tspan x="139.58" y="0">om ab</tspan><tspan class="cls-115" x="171.09" y="0">o</tspan><tspan class="cls-116" x="177.54" y="0">v</tspan><tspan class="cls-78" x="182.98" y="0">e)</tspan></text><text class="cls-37" transform="translate(483.35 611.58)">Sign<tspan class="cls-110" x="20.77" y="0">a</tspan><tspan x="26.56" y="0">tu</tspan><tspan class="cls-41" x="37.17" y="0">r</tspan><tspan x="41.3" y="0">e</tspan></text><text class="cls-37" transform="translate(35.21 634.84)">Occup<tspan class="cls-40" x="31.54" y="0">a</tspan><tspan x="37.33" y="0">tion:</tspan></text><text class="cls-111" transform="translate(272.91 634.84)">R<tspan class="cls-78" x="6.48" y="0">eligion:</tspan></text><text class="cls-37" transform="translate(35.21 658.43)">Co<tspan class="cls-40" x="13.07" y="0">n</tspan><tspan class="cls-63" x="19.43" y="0">t</tspan><tspan x="23.41" y="0">act Add</tspan><tspan class="cls-41" x="61.53" y="0">r</tspan><tspan x="65.66" y="0">ess:</tspan></text><text class="cls-37" transform="translate(35.21 681.16)">Place of <tspan class="cls-40" x="42.28" y="0">w</tspan><tspan x="50.98" y="0">ork:</tspan></text><text class="cls-37" transform="translate(221.95 681.16)"><tspan class="cls-112">T</tspan><tspan x="4.91" y="0">elephone no.</tspan></text><text class="cls-37" transform="translate(403.02 681.16)">Email add<tspan class="cls-41" x="49.07" y="0">r</tspan><tspan x="53.2" y="0">ess:</tspan></text><line class="cls-104" x1="232.41" y1="611.36" x2="472.76" y2="611.36"/><line class="cls-104" x1="535.41" y1="611.73" x2="571.41" y2="611.73"/><line class="cls-104" x1="98.06" y1="634.84" x2="264.65" y2="634.84"/><line class="cls-104" x1="319.71" y1="634.84" x2="497.12" y2="634.84"/><line class="cls-104" x1="122.29" y1="658.43" x2="571.24" y2="658.43"/><line class="cls-104" x1="110.29" y1="681.16" x2="215.71" y2="681.16"/><line class="cls-104" x1="295.24" y1="681.16" x2="395.47" y2="681.16"/><line class="cls-104" x1="478.29" y1="681.16" x2="565.94" y2="681.16"/><text class="cls-37" transform="translate(35.06 510.98)">Name of Mother:</text><text class="cls-37" transform="translate(431.29 510.98)">Sign<tspan class="cls-110" x="20.77" y="0">a</tspan><tspan x="26.56" y="0">tu</tspan><tspan class="cls-41" x="37.17" y="0">r</tspan><tspan x="41.3" y="0">e</tspan></text><text class="cls-37" transform="translate(35.21 534.24)">Occup<tspan class="cls-40" x="31.54" y="0">a</tspan><tspan x="37.33" y="0">tion:</tspan></text><text class="cls-111" transform="translate(272.91 534.24)">R<tspan class="cls-78" x="6.48" y="0">eligion:</tspan></text><text class="cls-37" transform="translate(35.21 557.83)">Co<tspan class="cls-40" x="13.07" y="0">n</tspan><tspan class="cls-63" x="19.43" y="0">t</tspan><tspan x="23.41" y="0">act Add</tspan><tspan class="cls-41" x="61.53" y="0">r</tspan><tspan x="65.66" y="0">ess:</tspan></text><text class="cls-37" transform="translate(35.21 580.56)">Place of <tspan class="cls-40" x="42.28" y="0">w</tspan><tspan x="50.98" y="0">ork:</tspan></text><text class="cls-37" transform="translate(221.95 580.56)"><tspan class="cls-112">T</tspan><tspan x="4.91" y="0">elephone no.</tspan></text><text class="cls-37" transform="translate(403.02 580.56)">Email add<tspan class="cls-41" x="49.07" y="0">r</tspan><tspan x="53.2" y="0">ess:</tspan></text><line class="cls-104" x1="123.94" y1="511.08" x2="423.71" y2="511.08"/><line class="cls-104" x1="483.35" y1="510.98" x2="551.24" y2="510.98"/><line class="cls-104" x1="98.06" y1="534.24" x2="264.65" y2="534.24"/><line class="cls-104" x1="319.71" y1="534.24" x2="497.12" y2="534.24"/><line class="cls-104" x1="122.29" y1="557.83" x2="571.24" y2="557.83"/><line class="cls-104" x1="110.29" y1="580.56" x2="215.71" y2="580.56"/><line class="cls-104" x1="295.24" y1="580.56" x2="395.47" y2="580.56"/><line class="cls-104" x1="478.29" y1="580.56" x2="565.94" y2="580.56"/><line class="cls-117" x1="27" y1="492.48" x2="571.24" y2="492.48"/><line class="cls-117" x1="27" y1="592.97" x2="571.24" y2="592.97"/><line class="cls-104" x1="44.94" y1="710.3" x2="433.59" y2="710.3"/><text class="cls-79" transform="translate(35.21 725.65)">rules and <tspan class="cls-118" x="47.03" y="0">r</tspan><tspan x="51" y="0">egul</tspan><tspan class="cls-119" x="71.4" y="0">a</tspan><tspan x="76.96" y="0">tion of the School. M</tspan><tspan class="cls-120" x="177.6" y="0">a</tspan><tspan class="cls-83" x="183.05" y="0">y God help me. </tspan></text><line class="cls-121" x1="35.21" y1="748.72" x2="122.29" y2="748.72"/><line class="cls-121" x1="435.04" y1="748.72" x2="522.12" y2="748.72"/><text class="cls-32" transform="translate(453.18 61.68)"><tspan class="cls-122">P</tspan><tspan x="9.74" y="0">assport</tspan></text><text class="cls-32" transform="translate(464.18 82.64)">Pho<tspan class="cls-33" x="30.52" y="0">t</tspan><tspan x="36.92" y="0">o</tspan></text></svg>