<svg width="886" height="639" viewBox="0 0 886 639" fill="none" xmlns="http://www.w3.org/2000/svg">
<path d="M123.775 -174.387C123.775 -174.387 34.5119 -83.7367 7.17218 -5.87702C-28.7369 96.387 41.8703 173.471 7.17218 276.28C-22.6328 364.59 -63.6093 402.892 -126.578 464.384C-202.639 538.663 -352.924 601.544 -352.924 601.544" stroke="white" stroke-opacity="0.15" stroke-width="1.63202"/>
<path d="M622.763 -88.1725C622.763 -88.1725 533.501 2.47815 506.161 80.3378C470.252 182.602 540.859 259.686 506.161 362.495C476.356 450.805 435.379 489.106 372.411 550.599C296.35 624.878 146.065 687.759 146.065 687.759" stroke="white" stroke-opacity="0.15" stroke-width="1.63202"/>
<path d="M123.775 -174.387C123.775 -174.387 34.5119 -83.7367 7.17218 -5.87702C-28.7369 96.387 41.8703 173.471 7.17218 276.28C-22.6328 364.59 -63.6093 402.892 -126.578 464.384C-202.639 538.663 -352.924 601.544 -352.924 601.544" stroke="white" stroke-opacity="0.15" stroke-width="1.63202"/>
<path d="M622.763 -88.1725C622.763 -88.1725 533.501 2.47815 506.161 80.3378C470.252 182.602 540.859 259.686 506.161 362.495C476.356 450.805 435.379 489.106 372.411 550.599C296.35 624.878 146.065 687.759 146.065 687.759" stroke="white" stroke-opacity="0.15" stroke-width="1.63202"/>
<path d="M180.362 -146.957C180.362 -146.957 91.0988 -56.3062 63.7591 21.5535C27.85 123.818 98.4572 200.902 63.7591 303.71C33.9541 392.021 -7.02236 430.322 -69.9909 491.815C-146.052 566.094 -296.337 628.974 -296.337 628.974" stroke="white" stroke-opacity="0.15" stroke-width="1.63202"/>
<path d="M679.351 -60.7393C679.351 -60.7393 590.089 29.9114 562.749 107.771C526.84 210.035 597.447 287.119 562.749 389.928C532.944 478.238 491.967 516.54 428.999 578.032C352.938 652.311 202.653 715.192 202.653 715.192" stroke="white" stroke-opacity="0.15" stroke-width="1.63202"/>
<path d="M180.362 -146.957C180.362 -146.957 91.0988 -56.3062 63.7591 21.5535C27.85 123.818 98.4572 200.902 63.7591 303.71C33.9541 392.021 -7.02236 430.322 -69.9909 491.815C-146.052 566.094 -296.337 628.974 -296.337 628.974" stroke="white" stroke-opacity="0.15" stroke-width="1.63202"/>
<path d="M679.351 -60.7393C679.351 -60.7393 590.089 29.9114 562.749 107.771C526.84 210.035 597.447 287.119 562.749 389.928C532.944 478.238 491.967 516.54 428.999 578.032C352.938 652.311 202.653 715.192 202.653 715.192" stroke="white" stroke-opacity="0.15" stroke-width="1.63202"/>
<path d="M70.6181 -225.331C70.6181 -225.331 -18.6447 -134.68 -45.9844 -56.8203C-81.8935 45.4438 -28.1285 157.858 -62.8267 260.667" stroke="white" stroke-opacity="0.15" stroke-width="1.63202"/>
<path d="M569.607 -139.118C569.607 -139.118 480.344 -48.4677 453.004 29.392C417.095 131.656 487.702 208.74 453.004 311.549C423.199 399.859 382.223 438.161 319.254 499.653C243.193 573.932 92.9082 636.813 92.9082 636.813" stroke="white" stroke-opacity="0.15" stroke-width="1.63202"/>
<path d="M70.6182 -225.331C70.6182 -225.331 -18.6446 -134.68 -45.9843 -56.8203C-81.8934 45.4437 -25.7316 155.461 -60.4297 258.27" stroke="white" stroke-opacity="0.15" stroke-width="1.63202"/>
<path d="M569.607 -139.118C569.607 -139.118 480.344 -48.4677 453.004 29.392C417.095 131.656 487.702 208.74 453.004 311.549C423.199 399.859 382.223 438.161 319.254 499.653C243.193 573.932 92.9082 636.813 92.9082 636.813" stroke="white" stroke-opacity="0.15" stroke-width="1.63202"/>
<path d="M266.098 -146.957C266.098 -146.957 176.835 -56.3062 149.495 21.5535C113.586 123.818 184.194 200.902 149.495 303.71C119.69 392.021 78.714 430.322 15.7455 491.815C-60.3158 566.094 -210.601 628.974 -210.601 628.974" stroke="white" stroke-opacity="0.15" stroke-width="1.63202"/>
<path d="M765.089 -60.7393C765.089 -60.7393 675.826 29.9114 648.487 107.771C612.578 210.035 683.185 287.119 648.487 389.928C618.682 478.238 577.705 516.54 514.737 578.032C438.675 652.311 288.391 715.192 288.391 715.192" stroke="white" stroke-opacity="0.15" stroke-width="1.63202"/>
<path d="M266.098 -146.957C266.098 -146.957 176.835 -56.3062 149.495 21.5535C113.586 123.818 184.194 200.902 149.495 303.71C119.69 392.021 78.714 430.322 15.7455 491.815C-60.3158 566.094 -210.601 628.974 -210.601 628.974" stroke="white" stroke-opacity="0.15" stroke-width="1.63202"/>
<path d="M765.089 -60.7393C765.089 -60.7393 675.826 29.9114 648.487 107.771C612.578 210.035 683.185 287.119 648.487 389.928C618.682 478.238 577.705 516.54 514.737 578.032C438.675 652.311 288.391 715.192 288.391 715.192" stroke="white" stroke-opacity="0.15" stroke-width="1.63202"/>
<path d="M331.257 -107.765C331.257 -107.765 241.994 -17.1139 214.655 60.7458C178.746 163.01 249.353 240.094 214.655 342.903C184.85 431.213 143.873 469.514 80.9046 531.007C4.84337 605.286 -145.441 668.167 -145.441 668.167" stroke="white" stroke-opacity="0.15" stroke-width="1.63202"/>
<path d="M830.248 -21.5525C830.248 -21.5525 740.985 69.0981 713.645 146.958C677.736 249.222 748.343 326.306 713.645 429.115C683.84 517.425 642.864 555.726 579.895 617.219C503.834 691.498 353.549 754.379 353.549 754.379" stroke="white" stroke-opacity="0.15" stroke-width="1.63202"/>
<path d="M379.716 -105.467C379.716 -105.467 290.453 -14.8162 263.113 63.0435C227.204 165.308 297.811 242.392 263.113 345.2C233.308 433.511 192.332 471.812 129.363 533.305C53.3019 607.584 -96.9829 670.464 -96.9829 670.464" stroke="white" stroke-opacity="0.15" stroke-width="1.63202"/>
<path d="M830.248 -21.5525C830.248 -21.5525 740.985 69.0982 713.645 146.958C677.736 249.222 748.343 326.306 713.645 429.115C683.84 517.425 642.864 555.726 579.895 617.219C503.834 691.498 353.549 754.379 353.549 754.379" stroke="white" stroke-opacity="0.15" stroke-width="1.63202"/>
<path d="M411.851 -68.5778C411.851 -68.5778 322.588 22.0729 295.248 99.9326C259.339 202.197 329.946 279.281 295.248 382.089C265.443 470.4 224.467 508.701 161.498 570.194C85.4371 644.473 -64.8477 707.353 -64.8477 707.353" stroke="white" stroke-opacity="0.15" stroke-width="1.63202"/>
<path d="M910.843 17.6345C910.843 17.6345 821.58 108.285 794.24 186.145C758.331 288.409 828.938 365.493 794.24 468.302C764.435 556.612 723.459 594.913 660.49 656.406C584.429 730.685 434.144 793.566 434.144 793.566" stroke="white" stroke-opacity="0.15" stroke-width="1.63202"/>
<path d="M411.851 -68.5778C411.851 -68.5778 322.588 22.0729 295.248 99.9326C259.339 202.197 329.946 279.281 295.248 382.089C265.443 470.4 224.467 508.701 161.498 570.194C85.4371 644.473 -64.8477 707.353 -64.8477 707.353" stroke="white" stroke-opacity="0.15" stroke-width="1.63202"/>
<path d="M910.843 17.6345C910.843 17.6345 821.58 108.285 794.24 186.145C758.331 288.409 828.938 365.493 794.24 468.302C764.435 556.612 723.459 594.913 660.49 656.406C584.429 730.685 434.144 793.566 434.144 793.566" stroke="white" stroke-opacity="0.15" stroke-width="1.63202"/>
<path d="M480.441 -39.187C480.441 -39.187 391.178 51.4636 363.839 129.323C327.93 231.587 398.537 308.672 363.839 411.48C334.034 499.791 293.057 538.092 230.089 599.585C154.027 673.863 3.74268 736.744 3.74268 736.744" stroke="white" stroke-opacity="0.15" stroke-width="1.63202"/>
<path d="M979.432 47.028C979.432 47.028 890.169 137.679 862.829 215.538C826.92 317.802 897.528 394.887 862.829 497.695C833.024 586.005 792.048 624.307 729.079 685.8C653.018 760.078 502.733 822.959 502.733 822.959" stroke="white" stroke-opacity="0.15" stroke-width="1.63202"/>
<path d="M480.441 -39.187C480.441 -39.187 391.178 51.4636 363.839 129.323C327.93 231.587 398.537 308.672 363.839 411.48C334.034 499.791 293.057 538.092 230.089 599.585C154.027 673.863 3.74268 736.744 3.74268 736.744" stroke="white" stroke-opacity="0.15" stroke-width="1.63202"/>
<path d="M979.432 47.028C979.432 47.028 890.169 137.679 862.829 215.538C826.92 317.802 897.528 394.887 862.829 497.695C833.024 586.005 792.048 624.307 729.079 685.8C653.018 760.078 502.733 822.959 502.733 822.959" stroke="white" stroke-opacity="0.15" stroke-width="1.63202"/>
</svg>
