<svg width="37" height="33" viewBox="0 0 37 33" fill="none" xmlns="http://www.w3.org/2000/svg">
<path d="M28.3137 24.7125L31.0562 26.54C31.3221 26.7174 31.6458 26.7861 31.9609 26.7322C32.2759 26.6783 32.5583 26.5057 32.75 26.25L36.5 21.25L34.5 19.75L31.4587 23.805L28.6938 21.96C28.4238 21.7797 28.0942 21.7114 27.7748 21.7698C27.4555 21.8281 27.1713 22.0084 26.9825 22.2725L23 27.8487V18H20.5V30.5C20.5007 31.1628 20.7643 31.7983 21.233 32.267C21.7017 32.7357 22.3372 32.9993 23 33H35.5V30.5H24.1788L28.3137 24.7125ZM0.5 24.25H18V26.75H0.5V24.25ZM0.5 30.5H18V33H0.5V30.5ZM11.75 18V11.75H13C14.3256 11.7483 15.5964 11.221 16.5337 10.2837C17.471 9.34638 17.9983 8.07557 18 6.75V3H14.25C12.97 3.0021 11.7401 3.49773 10.8162 4.38375C10.169 3.20846 9.21837 2.22823 8.06351 1.54516C6.90864 0.862092 5.59175 0.501174 4.25 0.5H0.5V4.25C0.502316 6.23841 1.29324 8.14472 2.69926 9.55074C4.10528 10.9568 6.01159 11.7477 8 11.75H9.25V18H0.5V20.5H18V18H11.75ZM14.25 5.5H15.5V6.75C15.4993 7.41284 15.2357 8.04834 14.767 8.51704C14.2983 8.98573 13.6628 9.24934 13 9.25H11.75V8C11.7507 7.33716 12.0143 6.70166 12.483 6.23296C12.9517 5.76427 13.5872 5.50066 14.25 5.5ZM8 9.25C6.67443 9.24835 5.40362 8.72103 4.46629 7.78371C3.52897 6.84638 3.00165 5.57557 3 4.25V3H4.25C5.57557 3.00165 6.84638 3.52897 7.78371 4.46629C8.72103 5.40362 9.24835 6.67443 9.25 8V9.25H8Z" fill="#013215"/>
</svg>
